<svg width="19" height="10" viewBox="0 0 19 10" fill="none" xmlns="http://www.w3.org/2000/svg">
<path fill-rule="evenodd" clip-rule="evenodd" d="M18.5785 0.156592C18.6884 0.267778 18.75 0.417786 18.75 0.574093C18.75 0.7304 18.6884 0.880407 18.5785 0.991592L10.1505 9.82059C10.1002 9.87696 10.0386 9.92207 9.96968 9.95296C9.90075 9.98384 9.82606 9.99981 9.75053 9.99981C9.67499 9.99981 9.60031 9.98384 9.53137 9.95296C9.46244 9.92207 9.40081 9.87696 9.35053 9.82059L0.922529 1.02059C0.813318 0.909137 0.75165 0.759631 0.750528 0.603592C0.751228 0.447469 0.81296 0.29781 0.922529 0.186592C0.972811 0.130221 1.03444 0.0851141 1.10337 0.0542289C1.17231 0.0233437 1.24699 0.00737776 1.32253 0.00737776C1.39807 0.00737776 1.47275 0.0233437 1.54169 0.0542289C1.61062 0.0851141 1.67225 0.130221 1.72253 0.186592L9.75153 8.53759L17.7805 0.154592C17.8897 0.0546521 18.0324 -0.000612781 18.1804 -0.000242315C18.3284 0.000128151 18.4709 0.0561068 18.5795 0.156592L18.5785 0.156592Z" fill="black"/>
</svg>
